<svg preserveAspectRatio="none" overflow="visible" style="display: block;" width="72" height="26" viewBox="0 0 72 26" fill="none" xmlns="http://www.w3.org/2000/svg">
<g id="Group 48096610">
<path id="Vector" d="M61.7994 3.66379C59.8119 3.66366 57.8695 4.17278 56.217 5.12678C54.5646 6.08078 53.2767 7.4368 52.5161 9.02337C51.7555 10.6099 51.5564 12.3558 51.944 14.0401C52.3316 15.7245 53.2885 17.2717 54.6936 18.486C56.0987 19.7004 57.8891 20.5275 59.8385 20.8625C61.7869 21.1976 63.8074 21.0257 65.6438 20.3686C67.4794 19.7114 69.0486 18.5985 70.1525 17.1706C71.2572 15.7427 71.8463 14.0639 71.8463 12.3466C71.8432 10.0447 70.784 7.83788 68.9006 6.21014C67.0172 4.5824 64.4631 3.66666 61.7994 3.66379ZM61.7994 17.6869C60.5773 17.6871 59.3825 17.374 58.3659 16.7872C57.3496 16.2005 56.5574 15.3665 56.0895 14.3907C55.6216 13.4149 55.4992 12.3411 55.7375 11.3051C55.9759 10.2692 56.5644 9.3176 57.4286 8.57064C58.2929 7.82371 59.3943 7.31502 60.593 7.10891C61.7916 6.9028 63.0342 7.00852 64.1631 7.4127C65.2928 7.81687 66.258 8.50136 66.9372 9.37962C67.6157 10.2578 67.9784 11.2904 67.9784 12.3466C67.9761 13.7622 67.3243 15.1191 66.1656 16.1202C65.0076 17.1212 63.4376 17.6846 61.7994 17.6869ZM38.7976 3.66379C36.8104 3.66379 34.8677 4.17304 33.2155 5.12711C31.5631 6.08119 30.2753 7.43726 29.5148 9.02384C28.7543 10.6104 28.5554 12.3562 28.9431 14.0405C29.3308 15.7248 30.2877 17.2719 31.6928 18.4862C33.098 19.7006 34.8883 20.5275 36.8374 20.8626C38.7864 21.1976 40.8067 21.0257 42.6427 20.3685C44.4787 19.7113 46.0478 18.5984 47.1519 17.1705C48.256 15.7426 48.8453 14.0639 48.8453 12.3466C48.8421 10.0446 47.7825 7.83766 45.8989 6.2099C44.0153 4.58214 41.4615 3.66648 38.7976 3.66379ZM38.7976 17.6869C37.6588 17.6874 36.5421 17.416 35.5706 16.9026C34.5991 16.3892 33.8106 15.6539 33.2922 14.7777C32.7738 13.9015 32.5456 12.9185 32.6329 11.9374C32.7202 10.9562 33.1194 10.0149 33.7867 9.21747C34.4539 8.42005 35.3632 7.79742 36.414 7.41836C37.4649 7.03929 38.6166 6.91852 39.7418 7.06937C40.8672 7.22024 41.9223 7.63685 42.7909 8.27324C43.6595 8.90963 44.3077 9.74108 44.664 10.6757H38.7976V14.0175H44.664C44.2559 15.084 43.4697 16.0125 42.4167 16.6711C41.3637 17.3297 40.0975 17.6851 38.7976 17.6869Z" fill="#FF70D9"/>
<path id="Vector_2" d="M22.4047 19.8778C21.9521 19.2722 21.2826 18.8066 20.3109 18.9584C18.065 19.3094 19.2581 17.5547 17.6439 18.2566C16.3525 18.8181 15.4213 20.4089 15.1172 21.1342C15.0236 20.6897 14.668 19.7164 13.9943 19.3795C13.152 18.9584 12.8713 19.6603 12.38 18.9584C11.8887 18.2566 11.8887 17.274 11.4676 16.2914C11.0465 15.3088 12.8713 13.8349 13.9943 14.3964C15.1172 14.9579 15.8191 14.607 16.3805 15.4492C16.942 16.2914 17.6439 17.3442 17.6439 14.3964C17.6439 11.4486 19.0476 10.1151 19.6792 10.1853C20.3109 10.2555 22.2761 9.55349 21.9252 8.85179C21.5742 8.15009 19.6792 7.79901 19.6792 7.16735C19.6792 6.53568 20.5215 5.20233 19.6792 4.57067C18.837 3.939 16.7315 2.67567 15.1172 2.81604C13.503 2.95641 13.0056 3.58849 13.0056 4.14997C13.0056 4.71145 15.1172 5.76439 13.9943 6.46587C12.8713 7.16735 9.22167 8.28994 9.22167 7.16735C9.22167 6.04475 9.01112 3.65846 9.71297 3.65846C10.4148 3.65846 10.6254 1.90384 11.0465 1.97402C11.4676 2.04421 13.2222 1.27262 13.9943 1.62332C14.2309 1.73084 15.0086 1.52834 15.8843 1.16344M15.8843 1.16344C14.8851 0.893826 13.8344 0.75 12.75 0.75C7.71902 0.75 3.41115 3.84599 1.62768 8.23668C1.06174 9.62994 0.75 11.1536 0.75 12.75C0.75 18.6727 5.04078 23.5933 10.6834 24.5727C11.3548 24.6893 12.0453 24.75 12.75 24.75C16.7083 24.75 20.2189 22.8335 22.4047 19.8778C23.8786 17.8847 24.75 15.4191 24.75 12.75C24.75 7.20694 20.9917 2.54168 15.8843 1.16344ZM10.6834 24.5727C10.7741 24.0506 10.8928 23.6192 11.0465 23.3801C11.6781 22.3975 13.7837 23.0994 13.9943 22.6081C14.2048 22.1168 13.2924 21.5553 12.38 21.1342C11.4676 20.7131 9.92352 20.292 9.71297 18.2566C9.50241 16.2212 8.51982 16.5721 8.30926 16.2914C8.09871 16.0107 5.64223 15.2386 4.86998 13.8349C4.09773 12.4312 4.8702 10.0449 4.86998 9.41327C4.86983 8.96675 2.93372 8.48743 1.62768 8.23668" stroke="#FF70D9" stroke-width="1.5" stroke-linecap="square" stroke-linejoin="round"/>
</g>
</svg>
